# xmcd
#
# Track frame offsets:
#  150
#  14268
#  28671
#  50124
#  63185
#  77527
#  91445
#  118052
#  131245
#  150189
#  172337
#  185409
#  203322
#  225089
#
# Disc length: 3229 seconds
#
# Revision: 1
# Processed by: cddbd v1.5.1PL0 Copyright (c) Steve Scherf et al.
# Submitted via: Collectorz.com_Music_Collector 6.9
#
DISCID=aa0c9b0e
DTITLE=Jimmie Lee Robinson - Chicago Jump
DYEAR=2004
DGENRE=Blues -  Blues Electric -  Blues Male Vocalist
TTITLE0=Angry Lover
TTITLE1=Poison Ivy
TTITLE2=Drifting Blues
TTITLE3=Ain't That Lovin' You Baby
TTITLE4=Tell Me Mama
TTITLE5=Jimmie's Jam
TTITLE6=3 O'Clock Blues
TTITLE7=Ah'w Baby
TTITLE8=In Love With You Baby
TTITLE9=Last Night
TTITLE10=See See Baby
TTITLE11=Confessing' The Blues
TTITLE12=Chicago Jump
TTITLE13=Got To Have Some
EXTD=
EXTT0=
EXTT1=
EXTT2=
EXTT3=
EXTT4=
EXTT5=
EXTT6=
EXTT7=
EXTT8=
EXTT9=
EXTT10=
EXTT11=
EXTT12=
EXTT13=
PLAYORDER=
